# xmcd CD database file
#
# Track frame offsets:
#	150
#	22275
#	44400
#
# Disc length: 882 seconds
#
# Revision: 5
# Processed by: cddbd v1.5.1PL2 Copyright (c) Steve Scherf et al.
# Submitted via: CDex 1.51
#
DISCID=24037003
DTITLE=JET KELLY - スーパノヴァ
DYEAR=2003
DGENRE=Rock
TTITLE0=スーパノヴァ
TTITLE1=アイスクリーム
TTITLE2=スーパノヴァ(乾電池バージョン）
EXTD=YEAR: 2003
EXTT0=
EXTT1=
EXTT2=
PLAYORDER=
